# xmcd
#
# Track frame offsets:
#	183
#	20395
#	44608
#	56493
#	70018
#	96740
#	111513
#	131515
#	148545
#	153723
#	167825
#	184920
#	201793
#	218400
#
# Disc length: 3071 seconds
#
# Revision: 5
# Processed by: cddbd v1.5.2PL0 Copyright (c) Steve Scherf et al.
# Submitted via: audiograbber 1.83.01
#
DISCID=d20bfd0e
DTITLE=Big Fat Snake - Big Fat Snake
DYEAR=1993
DGENRE=Blues
TTITLE0=Talkin' Woman Blues
TTITLE1=Love Man
TTITLE2=C'mon Everybody
TTITLE3=Love Her With A Feelin'
TTITLE4=Cold Cold Feelin'
TTITLE5=The Big Fat Snake
TTITLE6=Call Me The Breeze
TTITLE7=Summertime Blues
TTITLE8=Dance Dance Dance
TTITLE9=Cruisin'
TTITLE10=Lucille
TTITLE11=I Want You
TTITLE12=Mean Woman Blues
TTITLE13=Everytime You Go Away
EXTD=ID3G:   0
EXTT0=
EXTT1=
EXTT2=
EXTT3=
EXTT4=
EXTT5=
EXTT6=
EXTT7=
EXTT8=
EXTT9=
EXTT10=
EXTT11=
EXTT12=
EXTT13=
PLAYORDER=
